<svg xmlns="http://www.w3.org/2000/svg" version="1.0" preserveAspectRatio="xMidYMid meet" viewBox="106.7 35.99 370.24 370.3">
<metadata>
Created by potrace 1.16, written by Peter Selinger 2001-2019
</metadata>
<g transform="translate(0.000000,475.000000) scale(0.100000,-0.100000)" fill="#5865F2" stroke="none">
<path d="M2700 4379 c-255 -38 -424 -90 -620 -190 -478 -243 -823 -672 -960 -1195 -39 -151 -52 -262 -53 -454 -1 -266 30 -435 126 -680 91 -234 211 -421 392 -609 289 -300 642 -481 1075 -552 108 -18 423 -15 540 5 206 34 359 84 545 177 356 177 642 461 824 819 77 151 126 292 167 480 50 225 43 541 -16 786 -166 684 -690 1208 -1374 1374 -189 45 -486 64 -646 39z"/>
</g>
</svg>