<svg version="1.1" xmlns="http://www.w3.org/2000/svg" xmlns:xlink="http://www.w3.org/1999/xlink" x="0px" y="0px" viewBox="1141.0666666666668 293.2 867.6056338028169 867.7547199999999" style="max-height: 500px" xml:space="preserve" width="867.6056338028169" height="867.7547199999999">
<g id="background">
	<rect style="fill:none;" width="2200" height="1466"/>
</g>
<g id="Objects">
	<path fill="white" d="M1030.418,563.353c-21.952-51.899-53.376-98.508-93.399-138.532c-4.237-4.237-8.564-8.356-12.948-12.4&#10;&#9;&#9;c-0.219-0.234-0.452-0.452-0.699-0.65c-36.852-33.847-78.774-60.845-124.886-80.349c-53.735-22.729-110.813-34.252-169.647-34.252&#10;&#9;&#9;s-115.911,11.524-169.647,34.252c-51.899,21.952-98.507,53.375-138.531,93.399s-71.448,86.633-93.399,138.532&#10;&#9;&#9;C204.532,617.089,193.008,674.166,193.008,733s11.524,115.911,34.252,169.647c21.952,51.898,53.375,98.508,93.399,138.531&#10;&#9;&#9;c40.024,40.024,86.632,71.448,138.531,93.399c53.736,22.729,110.813,34.253,169.647,34.253s115.912-11.524,169.647-34.253&#10;&#9;&#9;c46.579-19.701,88.88-47.056,126-81.387c0.294-0.234,0.572-0.488,0.824-0.767c3.956-3.677,7.872-7.409,11.708-11.245&#10;&#9;&#9;c40.023-40.023,71.447-86.633,93.399-138.531c22.728-53.736,34.252-110.813,34.252-169.647S1053.146,617.088,1030.418,563.353z&#10;&#9;&#9; M1017.834,568.675c22.013,52.043,33.174,107.33,33.174,164.325c0,21.862-1.649,43.471-4.915,64.744&#10;&#9;&#9;c-16.813-62.002-44.713-121.242-81.617-172.897c-40.915-57.269-91.923-103.867-147.97-135.306&#10;&#9;&#9;c32.411-28.472,66.37-50.111,101.109-64.465c3.285,3.085,6.544,6.206,9.743,9.406&#10;&#9;&#9;C966.131,473.255,996.571,518.404,1017.834,568.675z M906.472,414.966c-36.699,16.044-72.426,39.84-106.334,70.898&#10;&#9;&#9;c-32.756,29.997-63.827,66.721-92.349,109.153c-28.787,42.823-54.493,90.64-76.46,142.16c-52.226,6.329-103.218,8.09-151.752,5.234&#10;&#9;&#9;c4.222-39.339,13.801-78.692,28.519-117.085c15.697-40.945,36.902-79.921,63.024-115.846&#10;&#9;&#9;c54.738-75.276,128.567-133.631,213.627-168.923c2.814,1.12,5.62,2.264,8.416,3.447&#10;&#9;&#9;C834.663,361.557,872.659,385.38,906.472,414.966z M206.67,733c0-21.332,1.564-42.424,4.675-63.197&#10;&#9;&#9;c33.193,25.486,73.252,45.765,119.314,60.323c0.083,0.03,0.167,0.058,0.252,0.085c42.353,13.366,89.689,21.911,140.696,25.396&#10;&#9;&#9;c17.61,1.203,35.542,1.804,53.746,1.804c35.007,0,71.016-2.245,107.594-6.675c31.61,42.089,58.631,85.371,80.414,128.808&#10;&#9;&#9;c-35.958,15.915-74.582,27.257-114.924,33.728c-43.033,6.901-87.124,8.116-131.046,3.618&#10;&#9;&#9;c-92.041-9.432-179.175-43.602-252.172-98.833C209.537,790.275,206.67,761.857,206.67,733z M766.194,333.676&#10;&#9;&#9;c-81.775,36.686-152.778,94.411-206.122,167.77c-26.826,36.893-48.605,76.926-64.731,118.99&#10;&#9;&#9;c-15.209,39.669-25.081,80.357-29.399,121.047c-45.565-3.534-87.988-11.223-126.282-22.882&#10;&#9;&#9;c-3.638-147.457,77.921-303.891,208.925-400.173c26.252-5.049,53.059-7.597,80.256-7.597&#10;&#9;&#9;C676.09,310.831,722.165,318.51,766.194,333.676z M239.844,568.675c21.263-50.271,51.704-95.42,90.477-134.193&#10;&#9;&#9;s83.922-69.214,134.193-90.477c17.123-7.242,34.598-13.302,52.369-18.184C397.609,424.394,324.127,572.9,325.913,714.198&#10;&#9;&#9;c-43.47-14.71-81.069-34.787-111.976-59.744C219.457,625.095,228.107,596.423,239.844,568.675z M239.844,897.325&#10;&#9;&#9;c-8.125-19.211-14.767-38.865-19.92-58.882c72.251,51.171,156.929,82.902,246.074,92.037c17.771,1.821,35.564,2.73,53.315,2.73&#10;&#9;&#9;c27.303,0,54.496-2.153,81.287-6.449c41.685-6.686,81.604-18.439,118.774-34.944c19.724,41.241,34.277,81.827,43.325,120.814&#10;&#9;&#9;c-116.381,71.082-276.108,83.416-418.54,32.106c-4.696-4.296-9.315-8.695-13.839-13.219&#10;&#9;&#9;C291.547,992.745,261.106,947.596,239.844,897.325z M464.514,1121.995c-33.148-14.02-64.051-32.056-92.386-53.815&#10;&#9;&#9;c49.781,14.43,101.057,21.548,151.5,21.548c87.287,0,172.051-21.336,242.125-62.99c7.213,36.113,9.57,70.783,7.025,103.26&#10;&#9;&#9;c-46.01,16.709-94.327,25.17-143.939,25.17C571.844,1155.169,516.557,1144.008,464.514,1121.995z M793.164,1121.995&#10;&#9;&#9;c-2.102,0.889-4.212,1.754-6.324,2.608c2.042-34.77-1.203-71.779-9.713-110.205c-9.599-43.352-25.866-88.621-48.354-134.55&#10;&#9;&#9;c-22.677-46.316-51.235-92.486-84.885-137.294c20.633-48.395,44.607-93.435,71.345-134.039&#10;&#9;&#9;c63.04,45.997,114.917,109.287,150.291,183.462c37.683,79.016,54.281,166.325,48.089,252.671&#10;&#9;&#9;C878.042,1077.212,837.609,1103.197,793.164,1121.995z M1017.834,897.325c-21.126,49.947-51.321,94.832-89.738,133.437&#10;&#9;&#9;c3.542-83.825-13.701-168.047-50.241-244.667c-36.428-76.386-89.939-141.57-155-188.927c25.845-37.696,53.717-70.593,82.967-97.929&#10;&#9;&#9;c55.874,30.461,106.808,76.542,147.536,133.549c41.622,58.258,71.5,126.425,86.471,197.217&#10;&#9;&#9;C1034.432,852.944,1027.098,875.423,1017.834,897.325z"/>
	<path fill="white" d="M1726.279,1014.396c-9.6-43.354-25.867-88.623-48.352-134.549c-22.678-46.315-51.237-92.485-84.886-137.292&#10;&#9;&#9;c20.63-48.389,44.603-93.43,71.345-134.04c63.04,45.997,114.917,109.287,150.291,183.463&#10;&#9;&#9;c37.683,79.016,54.28,166.323,48.089,252.667c-37.65,34.476-80.525,61.41-126.78,80.06&#10;&#9;&#9;C1738.039,1089.905,1734.796,1052.861,1726.279,1014.396z M1155.823,733c0-21.352,1.581-42.46,4.675-63.196&#10;&#9;&#9;c33.193,25.486,73.253,45.765,119.314,60.322c0.083,0.029,0.167,0.057,0.251,0.084c42.351,13.366,89.688,21.912,140.696,25.397&#10;&#9;&#9;c17.609,1.203,35.54,1.804,53.742,1.804c35.007,0,71.015-2.245,107.598-6.676c31.61,42.091,58.631,85.372,80.415,128.808&#10;&#9;&#9;c-75.06,33.247-159.942,46.157-245.971,37.345c-92.045-9.432-179.182-43.604-252.18-98.837&#10;&#9;&#9;C1158.728,790.362,1155.823,761.906,1155.823,733z M1855.623,414.967c-36.697,16.043-72.424,39.839-106.334,70.897&#10;&#9;&#9;c-32.755,29.996-63.825,66.72-92.348,109.153c-28.79,42.83-54.496,90.648-76.46,142.16c-52.231,6.328-103.225,8.087-151.751,5.234&#10;&#9;&#9;c8.791-82.145,40.358-162.538,91.544-232.93c54.763-75.312,128.636-133.686,213.745-168.973&#10;&#9;&#9;C1778.121,358.03,1819.183,383.065,1855.623,414.967z M1827.008,786.097c-36.429-76.387-89.94-141.572-155-188.928&#10;&#9;&#9;c25.846-37.696,53.718-70.593,82.966-97.928c55.875,30.461,106.809,76.542,147.537,133.549&#10;&#9;&#9;c41.629,58.267,71.511,126.445,86.479,197.249c-17.64,75.348-55.812,144.522-111.74,200.724&#10;&#9;&#9;C1880.791,946.938,1863.547,862.715,1827.008,786.097z M2000.161,733c0,21.879-1.673,43.499-4.921,64.727&#10;&#9;&#9;c-16.813-61.996-44.712-121.23-81.613-172.881c-40.915-57.269-91.923-103.867-147.97-135.306&#10;&#9;&#9;c32.413-28.473,66.372-50.112,101.111-64.466c3.284,3.085,6.542,6.206,9.743,9.406C1956.248,514.219,2000.161,620.234,2000.161,733&#10;&#9;&#9;z M1715.438,333.635c-81.814,36.685-152.851,94.425-206.215,167.811c-52.701,72.477-85.164,155.333-94.132,240.037&#10;&#9;&#9;c-45.566-3.535-87.989-11.224-126.282-22.883c-3.636-147.456,77.922-303.889,208.923-400.17c26.178-5.011,53.019-7.598,80.26-7.598&#10;&#9;&#9;C1625.495,310.831,1671.79,318.654,1715.438,333.635z M1279.473,434.481c52.638-52.638,116.733-89.652,186.658-108.739&#10;&#9;&#9;c-119.331,98.573-192.854,247.118-191.067,388.455c-43.464-14.708-81.058-34.782-111.963-59.734&#10;&#9;&#9;C1178.605,571.611,1218.576,495.378,1279.473,434.481z M1169.04,838.418c72.259,51.186,156.95,82.926,246.111,92.062&#10;&#9;&#9;c18.036,1.848,36.019,2.766,53.886,2.766c69.882,0,137.895-14.049,199.496-41.42c19.72,41.235,34.271,81.819,43.319,120.805&#10;&#9;&#9;c-116.378,71.083-276.1,83.415-418.53,32.11c-4.695-4.296-9.32-8.694-13.849-13.223&#10;&#9;&#9;C1225.223,977.268,1187.577,910.847,1169.04,838.418z M1321.22,1068.16c49.799,14.442,101.097,21.569,151.559,21.569&#10;&#9;&#9;c87.288,0,172.052-21.336,242.125-62.991c7.22,36.149,9.575,70.853,7.018,103.359c-45.534,16.472-94.069,25.072-143.931,25.072&#10;&#9;&#9;C1483.92,1155.169,1394.559,1124.585,1321.22,1068.16z"/>
</g>
</svg>