<?xml version="1.0" encoding="UTF-8" standalone="no"?>
<svg
   version="1.0"
   width="3701pt"
   height="1514.684pt"
   viewBox="0 0 3701 1514.684"
   preserveAspectRatio="xMidYMid meet"
   id="svg20"
   sodipodi:docname="bafe45ed4d80d0182f7a7bcfae9506e5.svg"
   xmlns:inkscape="http://www.inkscape.org/namespaces/inkscape"
   xmlns:sodipodi="http://sodipodi.sourceforge.net/DTD/sodipodi-0.dtd"
   xmlns="http://www.w3.org/2000/svg"
   xmlns:svg="http://www.w3.org/2000/svg">
  <defs
     id="defs24" />
  <sodipodi:namedview
     id="namedview22"
     pagecolor="#ffffff"
     bordercolor="#666666"
     borderopacity="1.0"
     inkscape:pageshadow="2"
     inkscape:pageopacity="0.0"
     inkscape:pagecheckerboard="0"
     inkscape:document-units="pt" />
  <metadata
     id="metadata2">
Created by potrace 1.16, written by Peter Selinger 2001-2019
</metadata>
  <g
     transform="matrix(0.1,0,0,-0.1,-807,3414.8516)"
     fill="#FFFFFF"
     stroke="none"
     id="g18">
    <path
       d="m 16158,34139 c -213,-21 -403,-76 -603,-175 -476,-236 -809,-675 -918,-1209 l -22,-110 v -6070 -6070 l 22,-110 c 109,-534 442,-973 918,-1209 210,-105 389,-154 630,-176 81,-8 447,-10 1115,-7 966,4 998,4 1107,25 743,142 1293,714 1398,1455 22,154 22,12030 0,12184 -56,397 -238,748 -528,1018 -127,119 -249,203 -402,279 -206,102 -388,154 -620,176 -132,12 -1967,11 -2097,-1 z"
       id="path4" />
    <path
       d="m 34603,34139 c -249,-23 -538,-121 -750,-256 -211,-133 -427,-355 -557,-570 -90,-150 -175,-374 -213,-558 -17,-87 -18,-322 -18,-6180 0,-5858 1,-6093 18,-6180 69,-336 221,-628 456,-869 300,-308 663,-479 1096,-516 89,-8 441,-10 1120,-7 957,4 994,4 1101,25 588,112 1069,503 1289,1047 43,106 89,278 105,389 17,115 17,12107 0,12222 -105,721 -662,1297 -1391,1436 -112,21 -132,21 -1139,24 -564,1 -1066,-2 -1117,-7 z"
       id="path6" />
    <path
       d="m 11170,32659 c -316,-34 -602,-177 -826,-412 -183,-191 -301,-423 -351,-687 -17,-90 -18,-332 -18,-4985 0,-4653 1,-4895 18,-4985 34,-181 109,-364 213,-521 62,-95 258,-291 353,-353 157,-104 340,-179 521,-213 87,-16 171,-18 960,-18 954,0 938,-1 1138,64 443,145 785,516 890,966 12,50 26,142 32,205 14,161 14,9551 -1,9713 -29,334 -174,639 -412,863 -188,178 -402,289 -667,347 -91,19 -128,20 -930,23 -459,1 -873,-2 -920,-7 z"
       id="path8" />
    <path
       d="m 39975,32660 c -500,-51 -933,-379 -1114,-845 -21,-55 -49,-143 -62,-195 l -24,-95 v -4950 -4950 l 24,-95 c 99,-400 342,-714 691,-894 123,-63 215,-96 360,-128 l 105,-23 h 870 c 783,0 879,2 961,17 597,113 1037,581 1104,1174 8,72 10,1414 8,4964 l -3,4865 -22,90 c -130,554 -526,941 -1076,1052 -72,14 -188,16 -912,18 -456,2 -866,-1 -910,-5 z"
       id="path10" />
    <path
       d="m 8070,26575 v -1955 h 700 700 v 1955 1955 h -700 -700 z"
       id="path12" />
    <path
       d="m 20325,28518 c -3,-7 -4,-886 -3,-1953 l 3,-1940 6113,-3 6112,-2 v 1955 1955 h -6110 c -4879,0 -6112,-3 -6115,-12 z"
       id="path14" />
    <path
       d="m 43400,26575 v -1955 h 840 840 v 1955 1955 h -840 -840 z"
       id="path16" />
  </g>
</svg>
